<svg width="16" height="16" viewBox="0 0 16 16" fill="none" xmlns="http://www.w3.org/2000/svg">
<rect width="16" height="16" fill="url(#paint0_linear_3_4)"/>
<path d="M9.82955 6.45455C9.77841 6.02273 9.57102 5.6875 9.20739 5.44886C8.84375 5.21023 8.39773 5.09091 7.86932 5.09091C7.48295 5.09091 7.14489 5.15341 6.85511 5.27841C6.56818 5.40341 6.34375 5.57528 6.18182 5.79403C6.02273 6.01278 5.94318 6.26136 5.94318 6.53977C5.94318 6.77273 5.99858 6.97301 6.10938 7.14062C6.22301 7.3054 6.3679 7.44318 6.54403 7.55398C6.72017 7.66193 6.90483 7.75142 7.09801 7.82244C7.29119 7.89062 7.46875 7.94602 7.63068 7.98864L8.51705 8.22727C8.74432 8.28693 8.99716 8.36932 9.27557 8.47443C9.55682 8.57955 9.82528 8.72301 10.081 8.90483C10.3395 9.08381 10.5526 9.31392 10.7202 9.59517C10.8878 9.87642 10.9716 10.2216 10.9716 10.6307C10.9716 11.1023 10.848 11.5284 10.6009 11.9091C10.3565 12.2898 9.99858 12.5923 9.52699 12.8168C9.05824 13.0412 8.48864 13.1534 7.81818 13.1534C7.19318 13.1534 6.65199 13.0526 6.1946 12.8509C5.74006 12.6491 5.3821 12.3679 5.12074 12.0071C4.86222 11.6463 4.71591 11.2273 4.68182 10.75H5.77273C5.80114 11.0795 5.91193 11.3523 6.10511 11.5682C6.30114 11.7812 6.5483 11.9403 6.84659 12.0455C7.14773 12.1477 7.47159 12.1989 7.81818 12.1989C8.22159 12.1989 8.58381 12.1335 8.90483 12.0028C9.22585 11.8693 9.48011 11.6847 9.66761 11.4489C9.85511 11.2102 9.94886 10.9318 9.94886 10.6136C9.94886 10.3239 9.8679 10.0881 9.70597 9.90625C9.54403 9.72443 9.33097 9.5767 9.06676 9.46307C8.80256 9.34943 8.51705 9.25 8.21023 9.16477L7.13636 8.85795C6.45455 8.66193 5.91477 8.3821 5.51705 8.01847C5.11932 7.65483 4.92045 7.17898 4.92045 6.59091C4.92045 6.10227 5.05256 5.67614 5.31676 5.3125C5.58381 4.94602 5.94176 4.66193 6.39062 4.46023C6.84233 4.25568 7.34659 4.15341 7.90341 4.15341C8.46591 4.15341 8.96591 4.25426 9.40341 4.45597C9.84091 4.65483 10.1875 4.92756 10.4432 5.27415C10.7017 5.62074 10.8381 6.0142 10.8523 6.45455H9.82955Z" fill="black"/>
<defs>
<linearGradient id="paint0_linear_3_4" x1="-0.5" y1="7" x2="16" y2="7" gradientUnits="userSpaceOnUse">
<stop offset="0.0581209" stop-color="#7928CA"/>
<stop offset="1" stop-color="#FF0080"/>
</linearGradient>
</defs>
</svg>
