<svg width="50" height="50" viewBox="0 0 50 50" fill="none" xmlns="http://www.w3.org/2000/svg">
<rect width="50" height="50" fill="url(#paint0_linear_4_4)"/>
<path d="M31.4886 18.3636C31.3352 17.0682 30.7131 16.0625 29.6222 15.3466C28.5313 14.6307 27.1932 14.2727 25.608 14.2727C24.4489 14.2727 23.4347 14.4602 22.5653 14.8352C21.7045 15.2102 21.0313 15.7259 20.5455 16.3821C20.0682 17.0384 19.8295 17.7841 19.8295 18.6193C19.8295 19.3182 19.9957 19.919 20.3281 20.4219C20.669 20.9162 21.1037 21.3295 21.6321 21.6619C22.1605 21.9858 22.7145 22.2543 23.294 22.4673C23.8736 22.6719 24.4062 22.8381 24.892 22.9659L27.5511 23.6818C28.233 23.8608 28.9915 24.108 29.8267 24.4233C30.6705 24.7386 31.4759 25.169 32.2429 25.7145C33.0185 26.2514 33.6577 26.9418 34.1605 27.7855C34.6634 28.6293 34.9148 29.6648 34.9148 30.892C34.9148 32.3068 34.544 33.5852 33.8026 34.7273C33.0696 35.8693 31.9957 36.777 30.581 37.4503C29.1747 38.1236 27.4659 38.4602 25.4545 38.4602C23.5795 38.4602 21.956 38.1577 20.5838 37.5526C19.2202 36.9474 18.1463 36.1037 17.3622 35.0213C16.5866 33.9389 16.1477 32.6818 16.0455 31.25H19.3182C19.4034 32.2386 19.7358 33.0568 20.3153 33.7045C20.9034 34.3437 21.6449 34.821 22.5398 35.1364C23.4432 35.4432 24.4148 35.5966 25.4545 35.5966C26.6648 35.5966 27.7514 35.4006 28.7145 35.0085C29.6776 34.608 30.4403 34.054 31.0028 33.3466C31.5653 32.6307 31.8466 31.7955 31.8466 30.8409C31.8466 29.9716 31.6037 29.2642 31.1179 28.7188C30.6321 28.1733 29.9929 27.7301 29.2003 27.3892C28.4077 27.0483 27.5511 26.75 26.6307 26.4943L23.4091 25.5739C21.3636 24.9858 19.7443 24.1463 18.5511 23.0554C17.358 21.9645 16.7614 20.5369 16.7614 18.7727C16.7614 17.3068 17.1577 16.0284 17.9503 14.9375C18.7514 13.8381 19.8253 12.9858 21.1719 12.3807C22.527 11.767 24.0398 11.4602 25.7102 11.4602C27.3977 11.4602 28.8977 11.7628 30.2102 12.3679C31.5227 12.9645 32.5625 13.7827 33.3295 14.8224C34.1051 15.8622 34.5142 17.0426 34.5568 18.3636H31.4886Z" fill="black"/>
<defs>
<linearGradient id="paint0_linear_4_4" x1="-1.5625" y1="21.875" x2="50" y2="21.875" gradientUnits="userSpaceOnUse">
<stop offset="0.0581209" stop-color="#7928CA"/>
<stop offset="1" stop-color="#FF0080"/>
</linearGradient>
</defs>
</svg>
